<?xml version="1.0" standalone="no"?>
<!DOCTYPE svg PUBLIC "-//W3C//DTD SVG 20010904//EN"
 "http://www.w3.org/TR/2001/REC-SVG-20010904/DTD/svg10.dtd">
<svg version="1.0" xmlns="http://www.w3.org/2000/svg"
 width="400.000000pt" height="200.000000pt" viewBox="0 0 400.000000 200.000000"
 preserveAspectRatio="xMidYMid meet">

<g transform="translate(0.000000,200.000000) scale(0.100000,-0.100000)"
fill="#000000" stroke="none">
<path d="M0 1000 l0 -670 2000 0 2000 0 0 670 0 670 -2000 0 -2000 0 0 -670z
m780 331 c0 -17 -88 -81 -104 -75 -12 5 -16 0 -16 -17 0 -15 -26 -53 -69 -102
-109 -123 -134 -195 -85 -244 23 -23 31 -25 84 -20 97 8 225 89 264 165 17 32
17 35 -1 54 -15 17 -26 19 -73 15 -50 -5 -53 -4 -35 9 28 21 83 34 143 34 44
0 57 -4 77 -26 14 -15 25 -39 25 -53 0 -39 -43 -123 -87 -171 -34 -39 -134
-120 -147 -120 -3 0 -27 -13 -54 -29 -63 -37 -186 -71 -255 -71 -72 0 -141 25
-173 63 l-26 30 26 16 c30 18 36 37 7 21 -34 -17 -41 -11 -41 33 0 58 35 142
98 233 l52 74 188 94 c199 99 202 101 202 87z m490 -64 c0 -14 -88 -49 -95
-37 -4 6 71 50 88 50 4 0 7 -6 7 -13z m402 -100 c3 -30 6 -32 46 -35 28 -2 42
-8 43 -18 1 -8 3 -18 4 -24 1 -5 4 -31 5 -57 3 -54 6 -45 15 40 l7 58 51 -3
52 -3 6 -50 5 -50 8 53 9 52 40 0 40 0 -7 -42 c-4 -24 -11 -79 -17 -123 -15
-131 -12 -125 -70 -125 -56 0 -54 -2 -65 85 l-8 60 -7 -64 c-5 -35 -12 -68
-17 -73 -5 -5 -29 -8 -53 -6 l-44 3 -12 70 c-7 39 -16 93 -20 120 -7 43 -9 33
-13 -70 l-5 -120 -133 -1 c-73 -1 -135 3 -138 7 -2 4 -18 3 -34 -3 -24 -8 -36
-7 -55 6 -22 14 -25 24 -25 71 0 45 4 57 25 74 l26 20 -23 3 c-31 4 -37 59
-10 86 44 44 156 31 170 -20 6 -21 7 -21 13 7 4 17 7 47 8 67 l1 37 89 0 90 0
3 -32z m976 -4 c3 -30 6 -32 32 -27 31 7 70 -22 71 -53 0 -14 3 -12 9 5 13 32
73 55 120 47 37 -6 62 -25 73 -55 3 -8 6 0 6 18 1 33 1 33 49 31 26 -1 59 2
75 6 19 5 35 2 53 -9 23 -16 25 -22 22 -84 l-3 -67 -42 -3 -43 -3 0 46 c0 28
-4 44 -10 40 -6 -3 -10 -52 -10 -111 l0 -105 -42 3 c-39 3 -43 6 -49 33 -5 28
-6 28 -12 8 -8 -23 -54 -43 -96 -43 -34 1 -70 22 -88 51 l-14 24 5 -26 c7 -34
-13 -51 -56 -47 l-33 3 -6 110 c-6 129 -9 127 -12 -10 l-2 -100 -91 0 c-123 0
-124 1 -124 126 0 73 -3 99 -12 99 -10 0 -13 -29 -13 -112 l0 -113 -42 -3
c-26 -2 -43 1 -43 8 0 8 -6 8 -21 0 -31 -17 -78 -3 -85 26 l-6 24 -23 -24
c-42 -45 -150 -42 -175 4 -11 20 -14 171 -4 207 3 12 22 29 41 38 52 25 110
11 139 -33 21 -31 23 -32 26 -10 7 54 123 73 169 27 19 -19 19 -19 19 1 0 11
6 20 14 20 9 0 16 12 18 28 3 24 7 27 43 27 36 0 40 -3 43 -27 5 -43 32 -36
32 8 l0 35 48 -3 c45 -3 47 -4 50 -35z m612 7 c0 -29 -2 -30 -45 -30 -43 0
-45 1 -45 30 0 29 2 30 45 30 43 0 45 -1 45 -30z m179 -47 c21 -17 22 -25 19
-148 l-3 -130 -40 0 -40 0 -6 110 -5 110 -2 -101 c-1 -67 -6 -105 -14 -112 -7
-5 -49 -9 -93 -8 l-80 1 -3 142 -3 143 106 -1 c58 -1 108 1 112 5 11 11 30 7
52 -11z m209 -20 c15 -16 22 -35 20 -52 -3 -23 -7 -26 -43 -26 -34 0 -40 3
-43 23 -2 12 -8 22 -13 22 -5 0 -9 -36 -9 -80 0 -47 4 -80 10 -80 6 0 10 14
10 31 0 29 1 30 43 27 39 -3 42 -5 45 -35 5 -46 -13 -71 -58 -83 -56 -15 -118
2 -130 36 -13 34 -13 181 1 205 27 52 125 59 167 12z m-2868 -67 c-1 -17 -57
-68 -64 -58 -3 6 -15 8 -26 5 -22 -6 -27 12 -7 24 8 4 16 15 19 24 7 17 78 22
78 5z m38 -364 c-2 -9 -10 -17 -18 -17 -15 0 -24 48 -14 75 7 20 37 -34 32
-58z m2599 36 c-3 -7 -5 -2 -5 12 0 14 2 19 5 13 2 -7 2 -19 0 -25z"/>
<path d="M1370 1054 c0 -8 5 -12 10 -9 6 3 10 10 10 16 0 5 -4 9 -10 9 -5 0
-10 -7 -10 -16z"/>
<path d="M1370 944 c0 -14 4 -23 10 -19 6 3 10 15 10 26 0 10 -4 19 -10 19 -5
0 -10 -12 -10 -26z"/>
<path d="M2090 1055 c0 -8 5 -15 10 -15 6 0 10 7 10 15 0 8 -4 15 -10 15 -5 0
-10 -7 -10 -15z"/>
<path d="M2296 1055 c-3 -8 -1 -15 4 -15 6 0 10 7 10 15 0 8 -2 15 -4 15 -2 0
-6 -7 -10 -15z"/>
<path d="M2520 990 c0 -64 3 -80 15 -80 12 0 15 16 15 80 0 64 -3 80 -15 80
-12 0 -15 -16 -15 -80z"/>
<path d="M2850 1055 c0 -8 4 -15 10 -15 5 0 7 7 4 15 -4 8 -8 15 -10 15 -2 0
-4 -7 -4 -15z"/>
<path d="M2200 1003 c0 -20 -5 -23 -42 -25 -41 -1 -41 -1 -8 -5 19 -3 40 -9
46 -14 8 -7 14 -2 18 14 3 13 16 28 28 34 22 10 22 10 -10 15 -28 4 -32 2 -32
-19z"/>
<path d="M2880 976 c0 -2 18 -6 40 -8 22 -2 40 0 40 4 0 5 -18 8 -40 8 -22 0
-40 -2 -40 -4z"/>
<path d="M2090 940 c0 -16 5 -30 10 -30 6 0 10 14 10 30 0 17 -4 30 -10 30 -5
0 -10 -13 -10 -30z"/>
<path d="M2300 945 c0 -14 2 -25 4 -25 2 0 6 11 8 25 3 14 1 25 -3 25 -5 0 -9
-11 -9 -25z"/>
<path d="M2850 940 c0 -16 2 -30 4 -30 2 0 6 14 8 30 3 17 1 30 -4 30 -4 0 -8
-13 -8 -30z"/>
</g>
</svg>
