<?xml version="1.0" standalone="no"?>
<!DOCTYPE svg PUBLIC "-//W3C//DTD SVG 20010904//EN"
 "http://www.w3.org/TR/2001/REC-SVG-20010904/DTD/svg10.dtd">
<svg version="1.0" xmlns="http://www.w3.org/2000/svg"
 width="238.000000pt" height="168.000000pt" viewBox="0 0 238.000000 168.000000"
 preserveAspectRatio="xMidYMid meet">

<g transform="translate(0.000000,168.000000) scale(0.100000,-0.100000)"
fill="#000000" stroke="none">
<path d="M171 1546 c-51 -28 -50 -14 -51 -715 l0 -653 34 -34 34 -34 1011 0
c705 0 1017 3 1034 11 13 6 31 23 40 39 15 25 17 90 17 680 l0 652 -34 34 -34
34 -1013 0 c-823 -1 -1019 -3 -1038 -14z m2047 -58 c17 -17 17 -1289 0 -1306
-17 -17 -2009 -17 -2026 0 -17 17 -17 1289 0 1306 17 17 2009 17 2026 0z"/>
<path d="M1108 1359 c-25 -12 -38 -27 -38 -39 0 -22 -10 -26 -27 -9 -7 7 -51
-10 -151 -60 -131 -66 -142 -74 -181 -128 -70 -98 -114 -196 -119 -266 -3 -48
-9 -66 -26 -80 l-21 -18 27 7 c21 5 30 1 43 -20 9 -14 38 -35 63 -48 60 -28
187 -30 276 -4 131 39 301 144 370 229 92 114 107 218 34 248 -35 14 -112 15
-148 0 l-25 -10 26 0 c34 -1 79 -37 79 -62 0 -79 -160 -203 -290 -227 -61 -11
-120 1 -142 28 -45 55 -10 147 107 283 71 81 95 101 95 77 0 -5 5 -10 10 -10
6 0 10 12 10 27 0 18 13 40 37 65 42 43 42 44 -9 17z m-368 -507 c0 -4 -20
-18 -45 -30 -54 -26 -61 -11 -7 17 41 22 52 25 52 13z"/>
<path d="M1327 1354 c-177 -43 -381 -185 -442 -308 -58 -115 -9 -179 118 -155
59 11 72 19 31 19 -16 0 -40 7 -52 16 -65 45 19 164 167 237 58 28 75 32 147
32 93 0 119 -14 130 -71 12 -66 -36 -160 -158 -304 -34 -41 -63 -81 -63 -90 0
-8 -7 -14 -17 -14 -9 1 -40 -23 -70 -53 l-53 -54 64 28 c46 20 66 24 69 15 6
-19 20 -14 24 8 2 16 44 40 188 105 l185 84 35 63 c63 111 83 168 88 249 3 57
0 83 -12 107 -15 30 -15 32 5 42 11 7 18 14 16 17 -3 2 -14 0 -24 -6 -15 -7
-32 -3 -78 20 -52 26 -67 29 -149 28 -50 0 -117 -7 -149 -15z m303 -79 c0 -10
-98 -54 -105 -47 -4 4 15 17 42 29 50 23 63 26 63 18z"/>
<path d="M1114 1055 c-4 -11 -14 -24 -21 -30 -10 -7 -5 -10 17 -11 19 -1 30 4
30 12 0 7 8 18 18 24 16 11 15 11 -2 5 -11 -3 -23 0 -27 7 -6 9 -10 7 -15 -7z"/>
<path d="M480 415 l0 -125 25 0 25 0 0 125 0 125 -25 0 -25 0 0 -125z"/>
<path d="M550 415 l0 -125 25 0 25 0 0 125 0 125 -25 0 -25 0 0 -125z"/>
<path d="M1280 415 l0 -125 25 0 c25 0 25 1 25 81 0 60 3 80 13 77 8 -3 13
-31 15 -81 3 -75 4 -77 28 -77 l25 0 -3 98 -3 97 -38 0 c-34 0 -37 2 -37 28 0
22 -4 27 -25 27 l-25 0 0 -125z"/>
<path d="M1740 525 c0 -9 9 -15 25 -15 16 0 25 6 25 15 0 9 -9 15 -25 15 -16
0 -25 -6 -25 -15z"/>
<path d="M1180 510 c0 -11 -4 -20 -10 -20 -5 0 -10 -7 -10 -15 0 -8 5 -15 10
-15 6 0 10 -31 10 -73 0 -80 9 -97 52 -97 28 0 39 22 18 35 -5 3 -10 35 -10
71 0 36 4 64 10 64 6 0 10 7 10 15 0 8 -4 15 -10 15 -5 0 -10 9 -10 20 0 16
-7 20 -30 20 -23 0 -30 -4 -30 -20z"/>
<path d="M903 489 c-31 -11 -43 -40 -43 -101 0 -72 19 -98 70 -98 44 0 70 20
70 56 0 20 -5 24 -30 24 -26 0 -30 -4 -30 -26 0 -14 -4 -23 -10 -19 -5 3 -10
19 -10 36 0 27 2 29 40 29 38 0 40 1 40 33 0 17 -4 38 -8 45 -12 18 -64 31
-89 21z m37 -49 c0 -11 -4 -20 -10 -20 -5 0 -10 9 -10 20 0 11 5 20 10 20 6 0
10 -9 10 -20z"/>
<path d="M1065 492 c-30 -6 -45 -22 -45 -48 0 -19 5 -24 25 -24 18 0 25 5 25
20 0 21 14 27 25 11 6 -10 0 -16 -48 -52 -24 -18 -28 -27 -25 -63 2 -34 7 -42
26 -44 13 -2 30 2 38 8 10 9 14 9 14 1 0 -6 11 -11 25 -11 25 0 25 1 25 89 0
59 -4 92 -12 98 -17 14 -49 20 -73 15z m33 -129 c-4 -34 -28 -43 -28 -10 0 25
7 37 22 37 5 0 8 -12 6 -27z"/>
<path d="M1475 492 c-39 -8 -45 -22 -45 -103 0 -88 8 -99 72 -99 41 0 58 15
58 52 0 23 -4 28 -24 28 -17 0 -26 -6 -28 -20 -5 -31 -23 -24 -23 8 0 24 4 27
38 30 36 3 37 4 37 41 0 50 -32 74 -85 63z m35 -52 c0 -11 -7 -20 -15 -20 -15
0 -21 21 -8 33 12 13 23 7 23 -13z"/>
<path d="M1676 493 c-3 -4 -26 -5 -51 -5 l-45 2 0 -100 0 -100 30 0 30 0 0 80
c0 47 4 80 10 80 6 0 10 -16 10 -36 0 -33 2 -35 28 -32 21 2 28 9 30 32 2 15
1 39 -2 51 -6 23 -29 39 -40 28z"/>
<path d="M342 478 c-7 -7 -12 -22 -12 -35 0 -18 6 -23 25 -23 19 0 25 5 25 21
0 11 5 19 12 17 25 -9 17 -26 -22 -52 -39 -25 -41 -30 -38 -69 3 -35 7 -43 26
-45 13 -2 30 2 38 8 10 9 14 9 14 1 0 -6 11 -11 25 -11 25 0 25 1 25 84 0 64
-4 88 -16 100 -18 19 -85 21 -102 4z m66 -115 c-4 -34 -28 -43 -28 -10 0 25 7
37 22 37 5 0 8 -12 6 -27z"/>
<path d="M620 483 c0 -11 19 -132 26 -165 5 -24 11 -28 40 -28 33 0 34 2 35
38 0 20 3 55 8 77 l7 40 7 -49 c4 -27 7 -62 7 -77 0 -26 3 -29 35 -29 28 0 36
4 39 23 5 22 26 161 26 171 0 3 -11 6 -25 6 -23 0 -25 -4 -26 -47 -1 -57 -17
-108 -18 -58 -1 17 -4 47 -7 68 -6 32 -10 37 -34 37 -30 0 -39 -18 -40 -75 0
-16 -5 -37 -10 -45 -7 -11 -10 0 -10 37 0 28 -3 58 -6 67 -6 16 -54 23 -54 9z"/>
<path d="M1740 390 l0 -100 25 0 25 0 0 100 0 100 -25 0 -25 0 0 -100z"/>
<path d="M1810 390 l0 -100 25 0 c25 0 25 1 25 80 0 64 3 80 15 80 12 0 15
-16 15 -80 0 -79 0 -80 25 -80 l26 0 -3 98 c-3 93 -4 97 -26 100 -13 2 -30 -2
-38 -8 -10 -9 -14 -9 -14 -1 0 6 -11 11 -25 11 l-25 0 0 -100z"/>
<path d="M1976 474 c-24 -24 -22 -145 2 -167 40 -36 112 -15 112 33 0 25 -4
30 -25 30 -20 0 -25 -5 -25 -26 0 -16 -5 -24 -12 -21 -9 2 -13 25 -13 67 0 42
4 65 13 68 7 2 12 -5 12 -17 0 -16 6 -21 25 -21 19 0 25 5 25 23 0 13 -5 28
-12 35 -17 17 -84 15 -102 -4z"/>
</g>
</svg>
