<?xml version="1.0" standalone="no"?>
<!DOCTYPE svg PUBLIC "-//W3C//DTD SVG 20010904//EN"
 "http://www.w3.org/TR/2001/REC-SVG-20010904/DTD/svg10.dtd">
<svg version="1.0" xmlns="http://www.w3.org/2000/svg"
 width="285.000000pt" height="78.000000pt" viewBox="0 0 285.000000 78.000000"
 preserveAspectRatio="xMidYMid meet">

<g transform="translate(0.000000,78.000000) scale(0.100000,-0.100000)"
fill="#000000" stroke="none">
<path d="M79 757 c-44 -29 -71 -86 -71 -146 0 -60 18 -95 76 -147 50 -45 54
-55 30 -78 -22 -22 -38 -20 -73 10 l-31 26 0 -76 c0 -73 1 -77 26 -86 67 -26
153 -1 189 54 51 78 37 174 -34 239 -56 50 -63 60 -55 81 9 23 54 20 81 -6
l23 -21 0 75 0 76 -31 11 c-49 17 -93 13 -130 -12z"/>
<path d="M290 515 l0 -255 65 0 64 0 3 113 3 112 40 -112 40 -113 69 0 c50 0
67 3 63 13 -3 6 -28 65 -57 130 l-52 119 50 121 c46 110 51 120 60 97 5 -14
31 -77 56 -140 45 -112 46 -116 46 -227 l0 -113 65 0 65 0 0 104 c0 101 1 107
55 250 30 80 55 148 55 151 0 3 -29 5 -64 5 l-65 0 -16 -57 c-27 -100 -31
-104 -44 -53 -7 25 -17 60 -22 78 l-11 32 -132 0 -132 0 -29 -92 c-16 -51 -32
-97 -37 -102 -4 -6 -8 36 -8 92 l0 102 -65 0 -65 0 0 -255z"/>
<path d="M1131 748 c-5 -13 -52 -126 -105 -252 -53 -126 -96 -230 -96 -232 0
-2 67 -4 149 -4 l149 0 8 153 8 152 22 -150 c12 -82 23 -151 23 -152 2 -7 111
-2 111 5 0 19 50 286 55 290 3 3 5 -49 5 -115 0 -66 3 -135 6 -152 6 -31 7
-31 73 -31 l67 0 -23 233 c-12 127 -22 242 -23 255 0 21 -4 22 -84 22 l-84 0
-17 -97 c-9 -54 -20 -111 -24 -128 -9 -34 -5 -49 -32 143 l-11 82 -84 0 c-78
0 -85 -2 -93 -22z"/>
<path d="M1735 758 c-2 -7 -29 -122 -58 -255 l-54 -243 69 0 68 0 0 31 c0 30
1 30 48 27 43 -3 47 -5 50 -30 3 -27 5 -28 68 -28 44 0 64 4 64 13 0 6 -21
121 -47 255 l-47 242 -78 0 c-54 0 -80 -4 -83 -12z m99 -280 c6 -48 6 -48 -24
-48 -26 0 -30 3 -25 23 4 19 22 130 26 162 1 11 13 -61 23 -137z"/>
<path d="M2050 515 l0 -255 66 0 66 0 -4 100 c-2 54 -3 98 -1 97 1 -1 17 -45
35 -97 l34 -95 68 -3 c79 -3 78 -12 15 124 -36 80 -37 84 -19 94 64 34 71 181
13 242 -35 37 -79 48 -185 48 l-88 0 0 -255z m176 120 c18 -28 13 -64 -12 -89
-27 -28 -34 -18 -34 49 0 72 16 86 46 40z"/>
<path d="M2400 710 l0 -60 35 0 35 0 0 -195 0 -195 65 0 65 0 2 193 3 192 38
3 37 3 0 60 0 59 -140 0 -140 0 0 -60z"/>
<path d="M2772 754 c-33 -23 -24 -85 13 -84 5 0 2 5 -7 11 -25 14 -22 54 5 72
12 9 20 16 17 16 -3 1 -16 -6 -28 -15z"/>
<path d="M2825 744 c9 -9 15 -23 13 -31 -4 -20 -23 -12 -21 10 2 12 -4 17 -22
17 -20 0 -25 -5 -25 -25 0 -14 5 -25 10 -25 6 0 10 5 10 10 0 6 6 5 14 -2 8
-7 12 -16 9 -20 -2 -5 0 -8 6 -8 6 0 15 10 22 21 12 24 -2 69 -21 69 -7 0 -4
-7 5 -16z"/>
<path d="M816 153 c10 -48 25 -107 30 -125 3 -10 13 -18 23 -18 14 0 21 14 32
63 l13 62 9 -40 c4 -22 10 -50 13 -62 3 -14 12 -23 23 -23 15 0 23 16 39 82
12 45 19 84 17 86 -14 15 -34 -13 -40 -57 -4 -28 -10 -51 -15 -51 -4 0 -10 23
-14 50 -4 32 -13 53 -22 57 -21 8 -31 -11 -39 -70 -4 -26 -9 -46 -12 -43 -3 2
-10 28 -17 58 -8 37 -17 54 -29 56 -15 3 -17 -1 -11 -25z"/>
<path d="M1220 95 c0 -69 3 -85 15 -85 10 0 15 10 15 29 0 44 15 46 40 6 13
-21 30 -35 42 -35 22 0 21 2 -28 74 -12 17 -10 24 11 52 29 38 30 44 11 44 -8
0 -28 -17 -45 -37 l-30 -38 -1 38 c0 26 -4 37 -15 37 -12 0 -15 -16 -15 -85z"/>
<path d="M1921 110 c-12 -38 -24 -76 -27 -85 -4 -10 0 -15 15 -15 14 0 21 6
21 20 0 29 60 29 67 0 3 -12 14 -20 25 -20 12 0 18 5 15 13 -2 6 -15 45 -28
85 -19 61 -26 72 -45 72 -19 0 -25 -11 -43 -70z m55 -27 c-2 -3 -11 -3 -18 -1
-12 2 -13 10 -5 38 l10 35 9 -34 c5 -18 7 -35 4 -38z"/>
<path d="M2190 165 c0 -10 7 -15 18 -13 21 4 19 22 -2 26 -10 2 -16 -3 -16
-13z"/>
<path d="M2487 174 c-13 -13 -7 -24 14 -24 11 0 19 5 17 12 -5 14 -22 21 -31
12z"/>
<path d="M2396 144 c-12 -11 -14 -26 -10 -57 9 -59 21 -77 49 -77 27 0 34 17
10 26 -8 4 -15 18 -15 34 0 16 7 30 15 34 8 3 15 10 15 16 0 5 -7 10 -15 10
-8 0 -15 7 -15 15 0 19 -14 19 -34 -1z"/>
<path d="M1054 122 c-37 -24 -36 -91 1 -106 32 -12 75 -7 75 10 0 8 -5 12 -11
9 -14 -9 -59 3 -59 15 0 6 18 10 40 10 44 0 50 11 24 48 -15 22 -49 29 -70 14z
m47 -27 c0 -5 -9 -11 -21 -13 -20 -3 -27 8 -13 22 10 9 34 3 34 -9z"/>
<path d="M1370 70 c0 -46 3 -60 14 -60 10 0 16 14 18 43 2 34 7 42 23 42 16 0
21 -8 23 -43 2 -29 8 -42 18 -42 12 0 14 11 12 51 -3 60 -24 82 -58 61 -12 -7
-20 -8 -20 -2 0 5 -7 10 -15 10 -12 0 -15 -13 -15 -60z"/>
<path d="M1530 110 c-11 -11 -20 -29 -20 -40 0 -27 35 -60 63 -60 31 0 57 29
57 63 0 53 -61 76 -100 37z m64 -23 c8 -12 8 -22 0 -34 -16 -25 -38 -22 -42 5
-7 50 18 67 42 29z"/>
<path d="M1650 123 c0 -3 8 -30 17 -60 20 -65 45 -71 59 -16 l10 38 10 -35
c16 -57 39 -50 62 19 20 59 20 61 2 61 -14 0 -20 -10 -26 -42 l-7 -43 -14 43
c-8 23 -20 42 -27 42 -7 0 -18 -19 -23 -42 -10 -43 -15 -40 -27 15 -4 15 -13
27 -21 27 -8 0 -15 -3 -15 -7z"/>
<path d="M2050 123 c0 -4 9 -30 19 -58 26 -69 48 -67 77 8 21 53 21 57 5 57
-12 0 -22 -14 -31 -42 l-13 -43 -12 40 c-7 23 -19 41 -28 43 -10 2 -17 0 -17
-5z"/>
<path d="M2190 70 c0 -47 3 -60 15 -60 12 0 15 13 15 60 0 47 -3 60 -15 60
-12 0 -15 -13 -15 -60z"/>
<path d="M2265 120 c-7 -11 -1 -13 33 -10 32 2 27 -14 -8 -27 -64 -24 -46 -72
25 -71 l45 1 0 43 c0 25 -6 49 -16 58 -17 18 -69 22 -79 6z m55 -64 c0 -16
-18 -31 -27 -22 -8 8 5 36 17 36 5 0 10 -6 10 -14z"/>
<path d="M2480 70 c0 -53 2 -60 20 -60 18 0 20 7 20 60 0 53 -2 60 -20 60 -18
0 -20 -7 -20 -60z"/>
<path d="M2565 116 c-42 -30 -14 -106 40 -106 35 0 58 24 58 60 0 52 -54 78
-98 46z m65 -46 c0 -16 -6 -30 -12 -33 -24 -8 -38 5 -38 33 0 16 6 30 13 33
23 8 37 -5 37 -33z"/>
<path d="M2690 70 c0 -53 2 -60 20 -60 17 0 20 7 20 45 0 38 3 45 20 45 17 0
20 -7 20 -45 0 -38 3 -45 20 -45 17 0 20 7 20 41 0 22 -5 49 -10 60 -12 21
-50 25 -68 7 -9 -9 -12 -9 -12 0 0 7 -7 12 -15 12 -12 0 -15 -13 -15 -60z"/>
</g>
</svg>
