<?xml version="1.0" standalone="no"?>
<!DOCTYPE svg PUBLIC "-//W3C//DTD SVG 20010904//EN"
 "http://www.w3.org/TR/2001/REC-SVG-20010904/DTD/svg10.dtd">
<svg version="1.0" xmlns="http://www.w3.org/2000/svg"
 width="636.000000pt" height="144.000000pt" viewBox="0 0 636.000000 144.000000"
 preserveAspectRatio="xMidYMid meet">

<g transform="translate(0.000000,144.000000) scale(0.100000,-0.100000)"
fill="#000000" stroke="none">
<path d="M780 765 l0 -575 415 0 415 0 0 575 0 575 -415 0 -415 0 0 -575z
m800 0 l0 -535 -385 0 -385 0 0 535 0 535 385 0 385 0 0 -535z"/>
<path d="M927 1274 c-15 -16 -6 -34 18 -34 l25 0 0 -362 c0 -210 4 -358 9
-352 5 5 58 101 117 214 l109 205 5 -130 5 -130 140 275 c129 254 142 275 168
278 20 3 27 8 25 20 -3 14 -18 18 -86 20 -77 3 -82 2 -82 -18 0 -13 7 -20 18
-20 10 0 22 -3 25 -7 4 -3 -21 -60 -56 -125 l-62 -119 -5 128 -5 128 -49 -95
c-74 -145 -178 -345 -182 -349 -2 -2 -4 95 -4 217 l0 222 31 0 c24 0 30 4 27
18 -3 14 -17 17 -94 20 -49 1 -93 0 -97 -4z"/>
<path d="M1303 797 l-113 -212 0 128 c0 70 -3 127 -7 126 -5 0 -69 -123 -143
-272 -123 -247 -137 -272 -160 -272 -18 0 -25 -5 -25 -20 0 -18 7 -20 80 -20
73 0 80 2 80 20 0 13 -8 21 -22 23 -13 2 -23 5 -23 7 0 2 29 59 65 127 l64
123 3 -132 3 -133 113 220 c63 121 115 220 118 220 2 0 4 -96 4 -214 l0 -215
-27 -3 c-20 -2 -28 -9 -28 -23 0 -19 7 -20 95 -20 88 0 95 1 95 20 0 14 -6 20
-22 19 l-23 -1 0 359 c0 197 -3 358 -7 358 -5 0 -59 -96 -120 -213z"/>
<path d="M3485 1331 c-109 -27 -168 -106 -169 -226 -1 -104 29 -157 169 -304
63 -66 117 -131 121 -146 19 -78 -88 -125 -167 -72 -37 24 -89 115 -89 154 0
14 -6 23 -15 23 -12 0 -15 -19 -15 -115 0 -104 2 -115 18 -115 10 0 23 5 29
11 8 8 23 7 57 -6 32 -12 65 -16 119 -14 95 5 144 36 183 115 23 47 26 63 23
131 -5 104 -27 143 -154 275 -108 111 -133 155 -115 203 11 30 48 55 80 55 63
0 129 -80 130 -157 0 -26 4 -33 20 -33 19 0 20 7 20 106 l0 106 -33 -6 c-20
-4 -51 0 -77 9 -45 16 -86 18 -135 6z"/>
<path d="M4458 1329 c-119 -34 -217 -216 -218 -405 0 -69 29 -193 59 -253 81
-157 237 -204 363 -108 176 134 197 510 38 691 -60 68 -158 98 -242 75z m102
-49 c19 -19 20 -33 20 -351 0 -208 -4 -337 -10 -350 -12 -22 -59 -26 -78 -7
-9 9 -12 101 -12 354 0 298 2 345 16 358 21 21 40 20 64 -4z"/>
<path d="M1650 1301 c0 -13 8 -21 22 -23 22 -3 27 -23 98 -386 l75 -383 59 3
60 3 51 177 c27 98 53 178 56 178 4 0 12 -30 18 -67 7 -38 21 -119 33 -180
l20 -113 69 0 68 0 6 33 c3 17 30 184 59 370 30 186 60 344 66 352 7 8 21 15
31 15 12 0 19 7 19 20 0 18 -7 20 -85 20 -78 0 -85 -2 -85 -20 0 -13 7 -20 19
-20 39 0 44 -22 27 -132 -39 -267 -50 -328 -56 -328 -6 0 -81 418 -80 448 0 6
11 12 25 12 18 0 25 5 25 20 0 19 -7 20 -140 20 -133 0 -140 -1 -140 -20 0
-13 7 -20 20 -20 11 0 20 -4 20 -10 0 -5 11 -72 25 -149 24 -139 24 -141 6
-193 -31 -87 -41 -111 -46 -106 -4 4 -95 441 -95 455 0 2 9 3 20 3 13 0 20 7
20 20 0 19 -7 20 -145 20 -137 0 -145 -1 -145 -19z"/>
<path d="M2480 1300 c0 -13 7 -20 20 -20 20 0 20 -7 20 -355 0 -348 0 -355
-20 -355 -13 0 -20 -7 -20 -20 0 -19 7 -20 135 -20 126 0 135 1 135 19 0 10
-9 21 -20 24 -20 5 -20 14 -20 356 0 344 0 351 20 351 13 0 20 7 20 20 0 19
-7 20 -135 20 -128 0 -135 -1 -135 -20z"/>
<path d="M2770 1302 c0 -14 9 -21 30 -25 l30 -6 0 -342 0 -341 -30 -11 c-18
-7 -30 -19 -30 -29 0 -16 10 -18 90 -18 83 0 90 1 90 20 0 11 -6 20 -14 20 -8
0 -23 8 -35 17 -21 18 -21 23 -19 268 l3 250 147 -297 148 -298 40 0 40 0 0
373 c0 388 1 397 42 397 11 0 18 7 18 20 0 19 -7 20 -90 20 -83 0 -90 -1 -90
-20 0 -13 7 -20 18 -20 10 0 26 -6 35 -13 16 -11 17 -30 15 -157 l-3 -145 -91
175 -91 175 -126 3 c-119 2 -127 1 -127 -16z"/>
<path d="M3760 1300 c0 -13 7 -20 20 -20 20 0 20 -7 20 -355 l0 -355 -25 0
c-18 0 -25 -5 -25 -20 0 -19 7 -20 229 -20 l228 0 6 83 c4 45 7 110 7 145 0
95 -22 81 -84 -53 -65 -139 -62 -135 -97 -135 l-29 0 0 355 0 355 30 0 c23 0
30 4 30 20 0 19 -7 20 -155 20 -148 0 -155 -1 -155 -20z"/>
<path d="M4750 1300 c0 -14 7 -20 24 -20 13 0 26 -6 28 -12 3 -7 38 -181 78
-385 l73 -373 58 0 58 0 25 83 c14 45 37 126 52 180 15 53 30 97 34 97 3 0 16
-59 28 -132 13 -72 28 -153 33 -180 l11 -48 68 0 68 0 11 63 c6 34 31 197 57
362 45 292 58 345 89 345 8 0 15 9 15 20 0 18 -7 20 -80 20 -73 0 -80 -2 -80
-20 0 -13 7 -20 20 -20 10 0 23 -7 28 -17 11 -19 9 -45 -24 -248 -28 -175 -33
-199 -40 -192 -4 3 -63 341 -77 437 -1 9 7 16 19 18 12 2 24 12 27 23 5 18 -1
19 -134 19 -131 0 -139 -1 -139 -19 0 -11 8 -21 18 -23 14 -3 22 -31 43 -153
l26 -150 -30 -80 c-24 -63 -32 -75 -38 -60 -8 18 -89 420 -89 438 0 4 9 7 20
7 13 0 20 7 20 20 0 19 -7 20 -150 20 -143 0 -150 -1 -150 -20z"/>
<path d="M3623 449 c-103 -30 -119 -214 -23 -264 73 -38 160 -8 179 63 9 30 8
32 -15 32 -17 0 -25 -7 -30 -26 -7 -28 -57 -56 -83 -46 -55 19 -82 84 -61 146
23 69 83 86 130 36 33 -35 60 -39 60 -10 0 28 -43 66 -81 74 -36 7 -34 7 -76
-5z"/>
<path d="M1840 310 l0 -141 92 3 c79 3 93 6 96 21 3 15 -5 17 -67 17 l-71 0 0
120 0 120 -25 0 -25 0 0 -140z"/>
<path d="M2080 430 c0 -13 7 -20 20 -20 13 0 20 7 20 20 0 13 -7 20 -20 20
-13 0 -20 -7 -20 -20z"/>
<path d="M2216 434 c-9 -8 -16 -24 -16 -34 0 -10 -7 -20 -15 -24 -8 -3 -15
-12 -15 -21 0 -8 7 -15 15 -15 12 0 15 -16 15 -85 0 -78 2 -85 20 -85 18 0 20
7 20 85 0 78 2 85 20 85 26 0 26 30 0 37 -16 4 -18 9 -9 24 5 10 16 19 24 19
8 0 15 7 15 15 0 20 -54 20 -74 -1z"/>
<path d="M2570 311 l0 -141 25 0 c24 0 25 3 25 60 l0 60 45 0 c59 0 85 -25 85
-80 0 -36 2 -40 25 -40 25 0 26 1 19 53 -3 28 -13 58 -20 66 -11 13 -11 18 3
33 22 25 22 83 0 106 -14 13 -39 18 -112 20 l-95 4 0 -141z m168 87 c35 -35
-11 -81 -75 -76 -37 3 -38 4 -41 46 l-3 42 53 0 c30 0 59 -5 66 -12z"/>
<path d="M3142 438 c-7 -7 -12 -22 -12 -34 0 -13 -8 -24 -20 -27 -11 -3 -20
-12 -20 -21 0 -9 8 -16 20 -16 18 0 20 -7 20 -86 0 -76 2 -85 18 -82 14 3 17
16 20 86 3 75 5 82 23 82 14 0 19 5 17 18 -2 9 -10 17 -18 17 -24 0 -25 36 -1
42 12 3 21 12 21 19 0 17 -51 19 -68 2z"/>
<path d="M3280 406 c0 -15 -7 -26 -20 -29 -11 -3 -20 -10 -20 -16 0 -6 9 -15
20 -21 17 -9 20 -21 20 -78 0 -75 10 -92 52 -92 33 0 39 29 8 37 -17 5 -20 14
-20 69 0 57 2 64 20 64 11 0 20 6 20 14 0 8 -9 18 -20 21 -13 4 -20 15 -20 31
0 17 -5 24 -20 24 -14 0 -20 -7 -20 -24z"/>
<path d="M2080 376 c-1 -3 -1 -50 -1 -103 -1 -92 0 -98 20 -101 21 -3 22 -1
19 100 -3 89 -5 103 -20 106 -10 2 -18 1 -18 -2z"/>
<path d="M2367 369 c-25 -15 -47 -63 -47 -104 0 -84 110 -129 167 -67 25 27
25 27 3 30 -12 2 -30 -4 -39 -12 -24 -21 -47 -20 -71 4 -33 33 -24 40 55 40
l75 0 0 31 c0 64 -86 111 -143 78z m91 -63 c3 -13 -6 -16 -47 -16 -28 0 -51 4
-51 8 0 13 24 39 40 45 19 6 54 -16 58 -37z"/>
<path d="M2900 367 c-32 -16 -40 -57 -11 -57 12 0 21 5 21 10 0 14 40 28 62
22 29 -7 22 -41 -9 -47 -16 -4 -39 -9 -53 -11 -36 -8 -50 -23 -50 -55 0 -48
20 -58 115 -57 65 0 85 4 85 14 0 8 -4 14 -10 14 -6 0 -10 28 -10 65 0 57 -3
69 -25 90 -27 28 -74 33 -115 12z m90 -122 c0 -49 -79 -59 -88 -12 -2 11 8 19
30 26 51 14 58 13 58 -14z"/>
<path d="M3869 351 c-24 -25 -29 -38 -29 -79 0 -67 33 -102 96 -102 55 0 92
31 101 82 16 104 -96 170 -168 99z m112 -27 c19 -23 16 -80 -6 -104 -53 -58
-126 31 -79 98 18 26 65 30 85 6z"/>
<path d="M4107 373 c-4 -3 -7 -51 -7 -105 0 -91 1 -98 20 -98 18 0 20 7 20 68
0 78 14 106 51 100 23 -3 24 -7 29 -83 4 -72 7 -80 25 -80 18 0 20 8 23 75 2
56 7 78 19 88 22 16 28 15 47 -4 12 -11 16 -36 16 -90 0 -67 2 -74 20 -74 18
0 20 7 20 83 0 99 -14 127 -64 127 -19 0 -39 -7 -46 -15 -11 -13 -15 -13 -33
0 -28 20 -66 19 -89 -2 -17 -15 -18 -15 -18 0 0 17 -21 23 -33 10z"/>
<path d="M4467 373 c-4 -3 -7 -66 -7 -140 0 -133 0 -133 23 -133 20 0 23 4 19
30 -6 40 5 67 20 52 7 -7 28 -12 48 -12 71 0 111 87 73 160 -22 43 -61 59
-105 42 -21 -8 -36 -8 -42 -2 -12 12 -20 13 -29 3z m131 -51 c19 -25 15 -86
-8 -107 -25 -23 -63 -13 -78 20 -18 39 -15 63 12 90 26 26 51 25 74 -3z"/>
<path d="M4751 367 c-13 -6 -28 -22 -32 -34 -7 -19 -5 -23 11 -23 11 0 29 9
41 21 21 21 56 19 71 -5 11 -17 -6 -27 -58 -37 -26 -5 -53 -14 -60 -20 -21
-18 -18 -76 5 -89 25 -13 77 -13 102 0 13 7 19 7 19 0 0 -13 47 -13 55 0 3 6
-1 17 -9 25 -11 11 -15 33 -13 76 2 53 -1 63 -22 80 -27 22 -75 24 -110 6z
m87 -124 c-4 -37 -50 -55 -75 -30 -26 26 1 49 65 56 9 1 12 -8 10 -26z"/>
<path d="M4965 372 c-3 -3 -5 -50 -5 -104 0 -91 1 -98 20 -98 18 0 20 7 20 70
0 56 4 74 20 90 15 15 25 17 42 11 21 -8 23 -15 26 -90 3 -77 4 -82 24 -79 20
3 21 8 19 88 -3 94 -16 120 -60 120 -15 0 -37 -7 -49 -16 -18 -12 -22 -13 -22
-1 0 13 -24 19 -35 9z"/>
<path d="M5176 372 c-2 -2 13 -47 34 -100 40 -103 40 -134 1 -140 -27 -4 -25
-35 2 -40 39 -8 63 24 105 139 51 142 52 143 27 144 -16 0 -25 -15 -46 -74
-14 -41 -28 -70 -31 -65 -3 5 -15 39 -27 76 -18 54 -26 66 -42 65 -11 -1 -22
-3 -23 -5z"/>
</g>
</svg>
